<?xml version="1.0"?>
<svg width="400" height="400" xmlns="http://www.w3.org/2000/svg" xmlns:svg="http://www.w3.org/2000/svg" preserveAspectRatio="xMidYMid meet" version="1.0">
 <g class="layer">
  <title>Layer 1</title>
  <g fill="#000000" id="svg_1" transform="matrix(0.158259 0 0 -0.19555 -103.227 702.959)">
   <path d="m727.8,3540.52c-18,-13 -43,-36 -54,-51c-21,-28 -21,-31 -21,-927c0,-896 0,-899 21,-927c11,-15 36,-38 54,-50c33,-23 35,-23 429,-23c442,0 441,0 489,70l22,33l0,897l0,897l-22,33c-48,70 -47,70 -489,70c-394,0 -396,0 -429,-22zm233,-88c16,-19 29,-20 202,-20c174,0 186,1 197,20c11,18 24,20 104,20c77,0 95,-3 118,-21l26,-20l0,-760c0,-746 0,-759 -20,-779c-19,-19 -33,-20 -424,-20c-370,0 -406,1 -425,18l-21,17l0,756c0,416 2,763 5,771c10,27 47,37 135,37c74,1 88,-2 103,-19zm253,-1676c20,-19 24,-31 19,-52c-10,-40 -34,-62 -69,-62c-37,0 -49,7 -65,37c-16,31 -14,47 10,77c27,35 71,35 105,0z" fill="#ffc107" id="svg_2" stroke-linejoin="bevel"/>
   <path d="m820.8,3287.52c0,-22 2,-30 4,-17c2,12 2,30 0,40c-3,9 -5,-1 -4,-23z" fill="#ffc107" id="svg_3" stroke-linejoin="bevel"/>
   <path d="m821.8,3012.52c0,-113 2,-159 3,-102c2,56 2,148 0,205c-1,56 -3,10 -3,-103z" fill="#ffc107" id="svg_4" stroke-linejoin="bevel"/>
   <path d="m917.8,2622.52l0,-240l45,0l45,0l0,79l0,78l193,6c105,3 209,11 230,17c22,6 55,26 74,44c29,27 36,41 40,82c9,95 -40,143 -168,164c-35,5 -153,10 -261,10l-198,0l0,-240zm503,127c31,-14 37,-21 37,-47c0,-51 -41,-62 -262,-68l-188,-5l0,73l0,73l188,-5c139,-4 197,-9 225,-21z" fill="#ffc107" id="svg_5" stroke-linejoin="bevel"/>
   <path d="m1704.8,2855.52c-4,-3 -7,-111 -7,-240l0,-233l49,0l49,0l1,102c1,57 6,107 11,112c5,5 20,6 34,2c26,-6 26,-7 26,-111l0,-105l50,0l50,0l-2,238l-3,237l-45,0l-45,0l-3,-82l-3,-83l-33,0c-31,0 -34,3 -40,38c-3,20 -6,58 -6,85l0,47l-38,0c-21,0 -42,-3 -45,-7z" fill="#ffc107" id="svg_6" stroke-linejoin="bevel"/>
   <path d="m2179.8,2842.52c-53,-32 -86,-116 -86,-215c0,-105 17,-160 64,-207c49,-50 94,-52 144,-8c51,45 71,107 71,215c0,76 -4,98 -25,140c-26,52 -78,95 -114,95c-12,0 -36,-9 -54,-20zm97,-145c19,-74 8,-165 -25,-209c-13,-19 -15,-19 -33,-2c-45,41 -51,188 -10,255c19,31 21,32 38,16c11,-9 24,-36 30,-60z" fill="#ffc107" id="svg_7" stroke-linejoin="bevel"/>
   <path d="m2507.8,2623.52l0,-241l45,0l45,0l1,113l0,112l42,-112l42,-113l48,0l47,0l0,240l0,240l-45,0l-44,0l-3,-107l-3,-108l-41,105l-41,105l-47,3l-46,3l0,-240z" fill="#ffc107" id="svg_8" stroke-linejoin="bevel"/>
   <path d="m2927.8,2622.52l0,-240l114,0l115,0l-2,43l-2,42l-68,3l-68,3l3,62l3,62l43,3l42,3l0,45l0,44l-45,0l-45,0l0,40l0,40l71,0l70,0l-3,43l-3,42l-112,3l-113,3l0,-241z" fill="#ffc107" id="svg_9" stroke-linejoin="bevel"/>
   <path d="m2203.8,2149.52c-21,-50 -47,-98 -57,-106c-29,-21 -23,-31 21,-31c38,0 52,12 31,25c-6,3 -6,17 1,35c8,25 15,30 44,30c27,0 36,-5 44,-24c5,-13 6,-33 3,-45c-5,-18 -1,-21 31,-21c25,0 36,4 36,15c0,8 -6,15 -13,15c-7,0 -30,42 -51,93c-21,50 -42,95 -45,99c-4,5 -24,-34 -45,-85zm54,-8c0,-10 -7,-19 -15,-19c-16,0 -19,9 -9,34c8,20 24,11 24,-15z" fill="#ffc107" id="svg_10" stroke-linejoin="bevel"/>
   <path d="m1817.8,2223.52c0,-5 7,-11 15,-15c22,-8 22,-161 -1,-170c-25,-10 -6,-26 32,-26c24,0 34,5 34,15c0,8 -4,15 -10,15c-6,0 -10,27 -10,62l0,62l43,-57c23,-31 44,-56 47,-56c3,0 23,25 45,55l40,56l3,-58c2,-44 -1,-60 -12,-66c-28,-16 -17,-28 24,-28c29,0 40,4 40,15c0,8 -4,15 -10,15c-6,0 -10,33 -10,80c0,47 4,80 10,80c6,0 10,7 10,15c0,36 -40,12 -86,-50c-26,-36 -51,-65 -54,-65c-3,0 -28,29 -55,65c-36,47 -56,65 -72,65c-13,0 -23,-4 -23,-9z" fill="#ffc107" id="svg_11" stroke-linejoin="bevel"/>
   <path d="m2377.8,2223.52c0,-6 5,-13 10,-16c6,-3 10,-42 10,-85c0,-43 -4,-82 -10,-85c-22,-13 -8,-25 30,-25c29,0 40,4 40,15c0,8 -7,15 -15,15c-10,0 -15,11 -15,35c0,50 18,43 43,-15c18,-43 25,-50 49,-50c31,0 38,19 9,27c-10,2 -25,19 -33,36c-14,29 -13,33 3,47c28,25 32,54 8,83c-18,23 -28,27 -75,27c-30,0 -54,-4 -54,-9zm114,-37c9,-22 -11,-44 -40,-44c-20,0 -24,5 -24,30c0,26 3,30 29,30c17,0 31,-6 35,-16z" fill="#ffc107" id="svg_12" stroke-linejoin="bevel"/>
   <path d="m2557.8,2222.52c0,-6 7,-13 15,-16c12,-5 15,-24 15,-84c0,-60 -3,-79 -15,-84c-29,-11 -15,-26 25,-26c29,0 40,4 40,15c0,8 -4,15 -10,15c-13,0 -13,67 -1,75c14,8 67,-65 63,-87c-3,-15 3,-18 32,-18c25,0 36,4 36,15c0,8 -6,15 -13,15c-7,0 -30,23 -51,50l-39,51l28,29c16,17 37,32 47,36c30,9 20,24 -17,24c-26,0 -35,-4 -35,-16c0,-9 -12,-27 -27,-40c-28,-24 -28,-24 -31,-3c-2,12 1,26 7,32c20,20 12,27 -29,27c-22,0 -40,-5 -40,-10z" fill="#ffc107" id="svg_13" stroke-linejoin="bevel"/>
   <path d="m2777.8,2222.52c0,-5 5,-10 10,-10c6,0 10,-35 10,-84c0,-47 -4,-88 -10,-91c-27,-16 -3,-25 70,-25c79,0 80,0 80,25c0,14 -4,25 -10,25c-5,0 -10,-4 -10,-10c0,-5 -20,-10 -45,-10c-45,0 -45,0 -45,35l0,35l51,0c66,0 62,24 -5,28c-46,3 -47,4 -44,34c3,28 6,31 41,32c23,1 37,-4 37,-11c0,-7 7,-13 15,-13c9,0 15,9 15,25c0,25 -1,25 -80,25c-47,0 -80,-4 -80,-10z" fill="#ffc107" id="svg_14" stroke-linejoin="bevel"/>
   <path d="m2957.8,2207.52c0,-27 24,-35 33,-11c4,9 14,12 26,9c19,-5 21,-13 21,-84c0,-64 -3,-79 -15,-79c-8,0 -15,-7 -15,-15c0,-11 11,-15 40,-15c29,0 40,4 40,15c0,8 -4,15 -10,15c-6,0 -10,33 -10,80c0,73 2,80 20,80c11,0 20,-4 20,-10c0,-5 7,-10 15,-10c9,0 15,9 15,25c0,25 -1,25 -90,25c-89,0 -90,0 -90,-25z" fill="#ffc107" id="svg_15" stroke-linejoin="bevel"/>
  </g>
 </g>
</svg>